<svg xmlns="http://www.w3.org/2000/svg" xmlns:xlink="http://www.w3.org/1999/xlink" width="500" zoomAndPan="magnify" viewBox="0 0 375 374.999991" height="500" preserveAspectRatio="xMidYMid meet" version="1.0"><defs><g/><clipPath id="36bebd2c46"><path d="M 37.5 83.09375 L 337.5 83.09375 L 337.5 241.34375 L 37.5 241.34375 Z M 37.5 83.09375 " clip-rule="nonzero"/></clipPath></defs><g clip-path="url(#36bebd2c46)"><path fill="#ffffff" d="M 260.480469 235.050781 C 261.148438 231.210938 261.484375 227.296875 261.484375 223.382812 C 261.484375 186.035156 231.101562 155.648438 193.757812 155.648438 C 156.414062 155.648438 126.035156 186.035156 126.035156 223.382812 C 126.035156 227.296875 126.367188 231.210938 127.035156 235.050781 Z M 337.5 238.113281 C 337.5 239.804688 336.132812 241.179688 334.441406 241.179688 L 40.558594 241.179688 C 38.867188 241.179688 37.5 239.804688 37.5 238.113281 C 37.5 236.425781 38.867188 235.050781 40.558594 235.050781 L 120.832031 235.050781 C 120.222656 231.203125 119.90625 227.296875 119.90625 223.382812 C 119.90625 182.660156 153.035156 149.523438 193.757812 149.523438 C 234.480469 149.523438 267.609375 182.660156 267.609375 223.382812 C 267.609375 227.296875 267.292969 231.203125 266.691406 235.050781 L 334.441406 235.050781 C 336.132812 235.050781 337.5 236.425781 337.5 238.113281 Z M 263.460938 169.6875 C 264.03125 170.648438 265.046875 171.183594 266.097656 171.183594 C 266.625 171.183594 267.164062 171.046875 267.660156 170.753906 L 287.761719 158.816406 C 289.207031 157.953125 289.6875 156.074219 288.828125 154.617188 C 287.957031 153.167969 286.082031 152.695312 284.628906 153.550781 L 264.527344 165.488281 C 263.078125 166.359375 262.597656 168.230469 263.460938 169.6875 Z M 285.035156 218.148438 C 283.375 217.960938 281.859375 219.222656 281.707031 220.917969 C 281.550781 222.59375 282.789062 224.082031 284.472656 224.238281 L 307.753906 226.394531 C 307.84375 226.402344 307.941406 226.410156 308.039062 226.410156 C 309.601562 226.410156 310.9375 225.214844 311.082031 223.625 C 311.238281 221.941406 310 220.453125 308.316406 220.296875 Z M 79.769531 220.363281 C 78.085938 220.175781 76.585938 221.445312 76.433594 223.128906 C 76.277344 224.804688 77.515625 226.296875 79.199219 226.457031 L 102.480469 228.605469 C 102.578125 228.613281 102.667969 228.621094 102.765625 228.621094 C 104.328125 228.621094 105.664062 227.425781 105.808594 225.839844 C 105.964844 224.15625 104.726562 222.664062 103.042969 222.511719 Z M 116.835938 173.960938 C 117.414062 174.464844 118.140625 174.71875 118.855469 174.71875 C 119.703125 174.71875 120.546875 174.367188 121.160156 173.675781 C 122.273438 172.40625 122.144531 170.476562 120.875 169.355469 L 103.3125 153.933594 C 102.042969 152.816406 100.105469 152.941406 98.992188 154.210938 C 97.875 155.488281 97.996094 157.414062 99.265625 158.53125 Z M 160.578125 138.183594 C 160.898438 139.601562 162.15625 140.570312 163.558594 140.570312 C 163.785156 140.570312 164.011719 140.546875 164.234375 140.496094 C 165.886719 140.121094 166.917969 138.488281 166.550781 136.835938 L 161.402344 114.03125 C 161.027344 112.378906 159.382812 111.355469 157.746094 111.71875 C 156.09375 112.085938 155.0625 113.730469 155.429688 115.375 Z M 218.59375 138.964844 C 218.984375 139.136719 219.394531 139.21875 219.800781 139.21875 C 220.988281 139.21875 222.117188 138.527344 222.617188 137.371094 L 231.851562 115.894531 C 232.519531 114.339844 231.804688 112.542969 230.25 111.875 C 228.695312 111.199219 226.894531 111.925781 226.230469 113.476562 L 216.992188 134.945312 C 216.324219 136.5 217.039062 138.300781 218.59375 138.964844 Z M 243.222656 155.292969 C 243.765625 155.691406 244.402344 155.878906 245.019531 155.878906 C 245.972656 155.878906 246.898438 155.4375 247.5 154.617188 L 276.855469 114.210938 C 277.847656 112.84375 277.546875 110.929688 276.179688 109.9375 C 274.804688 108.9375 272.898438 109.246094 271.898438 110.613281 L 242.546875 151.019531 C 241.550781 152.386719 241.863281 154.296875 243.222656 155.292969 Z M 273.796875 197.375 C 274.21875 198.667969 275.414062 199.488281 276.707031 199.488281 C 277.019531 199.488281 277.335938 199.441406 277.652344 199.335938 L 325.15625 183.90625 C 326.757812 183.382812 327.636719 181.652344 327.117188 180.046875 C 326.59375 178.4375 324.871094 177.558594 323.257812 178.078125 L 275.757812 193.515625 C 274.152344 194.035156 273.273438 195.761719 273.796875 197.375 Z M 62.363281 183.90625 L 109.863281 199.335938 C 110.179688 199.441406 110.496094 199.488281 110.808594 199.488281 C 112.101562 199.488281 113.296875 198.667969 113.71875 197.375 C 114.242188 195.761719 113.363281 194.035156 111.757812 193.515625 L 64.257812 178.078125 C 62.65625 177.566406 60.921875 178.4375 60.398438 180.046875 C 59.878906 181.652344 60.757812 183.382812 62.363281 183.90625 Z M 140.015625 154.617188 C 140.617188 155.4375 141.550781 155.878906 142.496094 155.878906 C 143.125 155.878906 143.75 155.691406 144.296875 155.292969 C 145.664062 154.296875 145.964844 152.386719 144.96875 151.019531 L 115.617188 110.613281 C 114.625 109.246094 112.710938 108.945312 111.335938 109.9375 C 109.96875 110.929688 109.667969 112.84375 110.660156 114.210938 Z M 190.699219 136.160156 L 190.699219 86.214844 C 190.699219 84.523438 192.066406 83.15625 193.757812 83.15625 C 195.449219 83.15625 196.816406 84.523438 196.816406 86.214844 L 196.816406 136.160156 C 196.816406 137.851562 195.449219 139.21875 193.757812 139.21875 C 192.066406 139.21875 190.699219 137.851562 190.699219 136.160156 " fill-opacity="1" fill-rule="nonzero"/></g><g fill="#ffffff" fill-opacity="1"><g transform="translate(39.031719, 284.206534)"><g><path d="M 24.03125 -22.078125 L 23.75 -22.078125 C 23.019531 -22.078125 22.359375 -21.789062 21.765625 -21.21875 C 21.421875 -20.914062 21.148438 -20.539062 20.953125 -20.09375 L 13.25 -2.84375 C 12.457031 -1.113281 12.0625 -0.015625 12.0625 0.453125 L 11.78125 0.453125 L 2.78125 -20.0625 C 2.476562 -20.75 2.066406 -21.253906 1.546875 -21.578125 C 1.023438 -21.910156 0.5 -22.078125 -0.03125 -22.078125 L -0.28125 -22.078125 L -0.28125 -22.40625 L 6.90625 -22.40625 L 6.90625 -22.078125 L 6.625 -22.078125 C 5.976562 -22.078125 5.550781 -21.78125 5.34375 -21.1875 C 5.300781 -21.050781 5.28125 -20.898438 5.28125 -20.734375 C 5.28125 -20.566406 5.332031 -20.351562 5.4375 -20.09375 L 12.125 -3.328125 L 19.109375 -20.09375 C 19.191406 -20.351562 19.234375 -20.601562 19.234375 -20.84375 C 19.234375 -21.09375 19.117188 -21.359375 18.890625 -21.640625 C 18.671875 -21.929688 18.335938 -22.078125 17.890625 -22.078125 L 17.59375 -22.078125 L 17.59375 -22.40625 L 24.03125 -22.40625 Z M 24.03125 -22.078125 "/></g></g></g><g fill="#ffffff" fill-opacity="1"><g transform="translate(65.745899, 284.206534)"><g><path d="M 6.96875 -18.375 C 8.613281 -19.21875 10.421875 -19.640625 12.390625 -19.640625 C 14.367188 -19.640625 16.175781 -19.21875 17.8125 -18.375 C 19.457031 -17.539062 20.765625 -16.351562 21.734375 -14.8125 C 22.710938 -13.28125 23.203125 -11.539062 23.203125 -9.59375 C 23.203125 -7.65625 22.710938 -5.914062 21.734375 -4.375 C 20.765625 -2.84375 19.457031 -1.65625 17.8125 -0.8125 C 16.175781 0.03125 14.492188 0.453125 12.765625 0.453125 C 11.035156 0.453125 9.507812 0.207031 8.1875 -0.28125 C 6.863281 -0.78125 5.71875 -1.460938 4.75 -2.328125 C 3.78125 -3.203125 3.007812 -4.269531 2.4375 -5.53125 C 1.875 -6.789062 1.59375 -8.269531 1.59375 -9.96875 C 1.59375 -11.664062 2.078125 -13.28125 3.046875 -14.8125 C 4.023438 -16.351562 5.332031 -17.539062 6.96875 -18.375 Z M 6.375 -3.046875 C 7.988281 -1.359375 9.988281 -0.515625 12.375 -0.515625 C 14.769531 -0.515625 16.773438 -1.359375 18.390625 -3.046875 C 20.015625 -4.742188 20.828125 -6.925781 20.828125 -9.59375 C 20.828125 -12.257812 20.015625 -14.441406 18.390625 -16.140625 C 16.773438 -17.835938 14.769531 -18.6875 12.375 -18.6875 C 9.988281 -18.6875 7.988281 -17.835938 6.375 -16.140625 C 4.769531 -14.441406 3.96875 -12.257812 3.96875 -9.59375 C 3.96875 -6.925781 4.769531 -4.742188 6.375 -3.046875 Z M 6.375 -3.046875 "/></g></g></g><g fill="#ffffff" fill-opacity="1"><g transform="translate(93.547804, 284.206534)"><g><path d="M 2.203125 -0.3125 C 2.785156 -0.3125 3.289062 -0.484375 3.71875 -0.828125 C 4.144531 -1.171875 4.359375 -1.578125 4.359375 -2.046875 L 4.359375 -17.15625 C 4.359375 -17.625 4.144531 -18.023438 3.71875 -18.359375 C 3.289062 -18.703125 2.773438 -18.875 2.171875 -18.875 L 1.765625 -18.875 L 1.765625 -19.203125 L 8.984375 -19.203125 L 8.984375 -18.875 L 8.578125 -18.875 C 8.003906 -18.875 7.507812 -18.710938 7.09375 -18.390625 C 6.675781 -18.078125 6.445312 -17.6875 6.40625 -17.21875 L 6.40625 -2.015625 C 6.425781 -1.546875 6.648438 -1.144531 7.078125 -0.8125 C 7.503906 -0.476562 8.003906 -0.3125 8.578125 -0.3125 L 8.984375 -0.3125 L 9.03125 0 L 1.765625 0 L 1.765625 -0.3125 Z M 2.203125 -0.3125 "/></g></g></g><g fill="#ffffff" fill-opacity="1"><g transform="translate(107.337156, 284.206534)"><g><path d="M 12.15625 0.453125 C 8.894531 0.429688 6.316406 -0.472656 4.421875 -2.265625 C 2.535156 -4.054688 1.59375 -6.503906 1.59375 -9.609375 C 1.59375 -12.710938 2.535156 -15.160156 4.421875 -16.953125 C 6.316406 -18.742188 8.894531 -19.640625 12.15625 -19.640625 C 13.476562 -19.640625 14.8125 -19.46875 16.15625 -19.125 C 17.5 -18.789062 18.660156 -18.328125 19.640625 -17.734375 L 20.359375 -13.1875 L 20.0625 -13.1875 C 19.144531 -16.851562 16.5 -18.6875 12.125 -18.6875 C 9.582031 -18.6875 7.578125 -17.875 6.109375 -16.25 C 4.640625 -14.632812 3.90625 -12.414062 3.90625 -9.59375 C 3.90625 -7.757812 4.234375 -6.164062 4.890625 -4.8125 C 5.554688 -3.457031 6.519531 -2.40625 7.78125 -1.65625 C 9.03125 -0.914062 10.488281 -0.546875 12.15625 -0.546875 C 13.820312 -0.546875 15.28125 -0.796875 16.53125 -1.296875 C 17.78125 -1.796875 18.8125 -2.617188 19.625 -3.765625 C 20.445312 -4.921875 20.914062 -6.351562 21.03125 -8.0625 L 21.3125 -8.0625 L 20.953125 -3.6875 C 20.128906 -2.40625 18.925781 -1.394531 17.34375 -0.65625 C 15.757812 0.0820312 14.03125 0.453125 12.15625 0.453125 Z M 12.15625 0.453125 "/></g></g></g><g fill="#ffffff" fill-opacity="1"><g transform="translate(132.931607, 284.206534)"><g><path d="M 2.203125 -0.3125 C 2.710938 -0.3125 3.144531 -0.476562 3.5 -0.8125 C 3.851562 -1.144531 4.039062 -1.546875 4.0625 -2.015625 L 4.0625 -17.21875 C 4.0625 -17.6875 3.878906 -18.078125 3.515625 -18.390625 C 3.148438 -18.710938 2.710938 -18.875 2.203125 -18.875 L 1.765625 -18.875 L 1.765625 -19.203125 L 11.109375 -19.203125 C 11.984375 -19.203125 12.75 -19.265625 13.40625 -19.390625 C 14.070312 -19.515625 14.5 -19.625 14.6875 -19.71875 L 14.6875 -16.0625 L 14.34375 -16.09375 L 14.34375 -16.578125 C 14.34375 -17.023438 14.191406 -17.40625 13.890625 -17.71875 C 13.585938 -18.039062 13.203125 -18.203125 12.734375 -18.203125 L 6.078125 -18.203125 L 6.078125 -10.078125 L 11.546875 -10.078125 C 11.972656 -10.078125 12.296875 -10.203125 12.515625 -10.453125 C 12.742188 -10.710938 12.859375 -11.035156 12.859375 -11.421875 L 12.859375 -11.84375 L 13.21875 -11.84375 L 13.21875 -7.359375 L 12.859375 -7.359375 L 12.859375 -7.78125 C 12.859375 -8.375 12.632812 -8.773438 12.1875 -8.984375 C 12.019531 -9.054688 11.835938 -9.101562 11.640625 -9.125 L 6.078125 -9.125 L 6.078125 -0.984375 L 11.109375 -0.984375 C 12.085938 -0.984375 12.910156 -1.15625 13.578125 -1.5 C 14.253906 -1.84375 14.765625 -2.25 15.109375 -2.71875 C 15.460938 -3.1875 15.820312 -3.804688 16.1875 -4.578125 L 16.515625 -4.578125 L 14.75 0 L 1.765625 0 L 1.765625 -0.3125 Z M 2.203125 -0.3125 "/></g></g></g><g fill="#ffffff" fill-opacity="1"><g transform="translate(153.439316, 284.206534)"><g><path d="M 1.859375 -1.0625 C 1.796875 -1.3125 1.765625 -1.832031 1.765625 -2.625 C 1.765625 -3.414062 1.898438 -4.21875 2.171875 -5.03125 L 2.5625 -5.03125 C 2.539062 -4.832031 2.53125 -4.640625 2.53125 -4.453125 C 2.53125 -3.296875 2.90625 -2.347656 3.65625 -1.609375 C 4.414062 -0.878906 5.46875 -0.515625 6.8125 -0.515625 C 8.21875 -0.515625 9.316406 -0.835938 10.109375 -1.484375 C 10.898438 -2.140625 11.296875 -2.984375 11.296875 -4.015625 C 11.296875 -5.046875 10.910156 -5.90625 10.140625 -6.59375 L 3.75 -11.515625 C 2.71875 -12.390625 2.203125 -13.566406 2.203125 -15.046875 C 2.203125 -15.867188 2.429688 -16.632812 2.890625 -17.34375 C 3.347656 -18.050781 3.988281 -18.609375 4.8125 -19.015625 C 5.632812 -19.429688 6.597656 -19.640625 7.703125 -19.640625 C 8.816406 -19.640625 9.800781 -19.546875 10.65625 -19.359375 L 11.71875 -19.359375 L 11.78125 -15.875 L 11.421875 -15.875 C 11.421875 -16.769531 11.109375 -17.460938 10.484375 -17.953125 C 9.867188 -18.441406 8.984375 -18.6875 7.828125 -18.6875 C 6.679688 -18.6875 5.734375 -18.390625 4.984375 -17.796875 C 4.242188 -17.210938 3.875 -16.457031 3.875 -15.53125 C 3.875 -14.601562 4.289062 -13.800781 5.125 -13.125 L 11.578125 -8.125 C 12.566406 -7.3125 13.0625 -6.179688 13.0625 -4.734375 C 13.0625 -3.285156 12.507812 -2.054688 11.40625 -1.046875 C 10.3125 -0.046875 8.972656 0.453125 7.390625 0.453125 C 6.347656 0.453125 5.300781 0.320312 4.25 0.0625 C 3.207031 -0.1875 2.410156 -0.5625 1.859375 -1.0625 Z M 1.859375 -1.0625 "/></g></g></g><g fill="#ffffff" fill-opacity="1"><g transform="translate(171.259677, 284.206534)"><g/></g></g><g fill="#ffffff" fill-opacity="1"><g transform="translate(182.297709, 284.206534)"><g><path d="M 6.96875 -18.375 C 8.613281 -19.21875 10.421875 -19.640625 12.390625 -19.640625 C 14.367188 -19.640625 16.175781 -19.21875 17.8125 -18.375 C 19.457031 -17.539062 20.765625 -16.351562 21.734375 -14.8125 C 22.710938 -13.28125 23.203125 -11.539062 23.203125 -9.59375 C 23.203125 -7.65625 22.710938 -5.914062 21.734375 -4.375 C 20.765625 -2.84375 19.457031 -1.65625 17.8125 -0.8125 C 16.175781 0.03125 14.492188 0.453125 12.765625 0.453125 C 11.035156 0.453125 9.507812 0.207031 8.1875 -0.28125 C 6.863281 -0.78125 5.71875 -1.460938 4.75 -2.328125 C 3.78125 -3.203125 3.007812 -4.269531 2.4375 -5.53125 C 1.875 -6.789062 1.59375 -8.269531 1.59375 -9.96875 C 1.59375 -11.664062 2.078125 -13.28125 3.046875 -14.8125 C 4.023438 -16.351562 5.332031 -17.539062 6.96875 -18.375 Z M 6.375 -3.046875 C 7.988281 -1.359375 9.988281 -0.515625 12.375 -0.515625 C 14.769531 -0.515625 16.773438 -1.359375 18.390625 -3.046875 C 20.015625 -4.742188 20.828125 -6.925781 20.828125 -9.59375 C 20.828125 -12.257812 20.015625 -14.441406 18.390625 -16.140625 C 16.773438 -17.835938 14.769531 -18.6875 12.375 -18.6875 C 9.988281 -18.6875 7.988281 -17.835938 6.375 -16.140625 C 4.769531 -14.441406 3.96875 -12.257812 3.96875 -9.59375 C 3.96875 -6.925781 4.769531 -4.742188 6.375 -3.046875 Z M 6.375 -3.046875 "/></g></g></g><g fill="#ffffff" fill-opacity="1"><g transform="translate(210.099617, 284.206534)"><g><path d="M 14.46875 -16.578125 C 14.46875 -17.296875 14.15625 -17.796875 13.53125 -18.078125 C 13.320312 -18.160156 13.097656 -18.203125 12.859375 -18.203125 L 6.109375 -18.203125 L 6.109375 -10.078125 L 11.6875 -10.078125 C 12.101562 -10.078125 12.414062 -10.203125 12.625 -10.453125 C 12.84375 -10.710938 12.953125 -11.035156 12.953125 -11.421875 L 12.953125 -11.84375 L 13.34375 -11.84375 L 13.34375 -7.359375 L 12.953125 -7.359375 L 12.953125 -7.78125 C 12.953125 -8.289062 12.785156 -8.660156 12.453125 -8.890625 C 12.253906 -9.023438 12.019531 -9.101562 11.75 -9.125 L 6.109375 -9.125 L 6.109375 -2.046875 C 6.128906 -1.472656 6.382812 -1.003906 6.875 -0.640625 C 7.195312 -0.421875 7.570312 -0.3125 8 -0.3125 L 8.453125 -0.3125 L 8.453125 0 L 1.765625 0 L 1.765625 -0.3125 L 2.203125 -0.3125 C 2.710938 -0.3125 3.148438 -0.476562 3.515625 -0.8125 C 3.878906 -1.144531 4.070312 -1.546875 4.09375 -2.015625 L 4.09375 -17.21875 C 4.070312 -17.875 3.765625 -18.351562 3.171875 -18.65625 C 2.867188 -18.800781 2.546875 -18.875 2.203125 -18.875 L 1.765625 -18.875 L 1.765625 -19.203125 L 11.203125 -19.203125 C 11.816406 -19.203125 12.5 -19.253906 13.25 -19.359375 C 14 -19.460938 14.519531 -19.582031 14.8125 -19.71875 L 14.8125 -16.0625 L 14.46875 -16.09375 Z M 14.46875 -16.578125 "/></g></g></g><g fill="#ffffff" fill-opacity="1"><g transform="translate(229.871505, 284.206534)"><g/></g></g><g fill="#ffffff" fill-opacity="1"><g transform="translate(240.909536, 284.206534)"><g><path d="M 17.5 -0.3125 C 18.0625 -0.3125 18.535156 -0.503906 18.921875 -0.890625 C 19.316406 -1.273438 19.523438 -1.742188 19.546875 -2.296875 L 19.546875 -10.59375 L 6.46875 -10.59375 L 6.46875 -2.34375 C 6.46875 -1.78125 6.671875 -1.300781 7.078125 -0.90625 C 7.484375 -0.507812 7.960938 -0.3125 8.515625 -0.3125 L 8.921875 -0.3125 L 8.921875 0 L 1.921875 0 L 1.921875 -0.3125 L 2.34375 -0.3125 C 2.894531 -0.3125 3.367188 -0.507812 3.765625 -0.90625 C 4.160156 -1.300781 4.367188 -1.78125 4.390625 -2.34375 L 4.390625 -20.09375 C 4.367188 -20.644531 4.160156 -21.113281 3.765625 -21.5 C 3.367188 -21.882812 2.894531 -22.078125 2.34375 -22.078125 L 1.921875 -22.078125 L 1.921875 -22.40625 L 8.921875 -22.40625 L 8.921875 -22.078125 L 8.515625 -22.078125 C 7.960938 -22.078125 7.488281 -21.882812 7.09375 -21.5 C 6.695312 -21.113281 6.488281 -20.644531 6.46875 -20.09375 L 6.46875 -11.546875 L 19.546875 -11.546875 L 19.546875 -20.09375 C 19.523438 -20.863281 19.1875 -21.441406 18.53125 -21.828125 C 18.207031 -21.992188 17.863281 -22.078125 17.5 -22.078125 L 17.09375 -22.078125 L 17.09375 -22.40625 L 24.09375 -22.40625 L 24.09375 -22.078125 L 23.6875 -22.078125 C 23.125 -22.078125 22.644531 -21.878906 22.25 -21.484375 C 21.851562 -21.085938 21.644531 -20.613281 21.625 -20.0625 L 21.625 -2.34375 C 21.644531 -1.78125 21.851562 -1.300781 22.25 -0.90625 C 22.644531 -0.507812 23.125 -0.3125 23.6875 -0.3125 L 24.09375 -0.3125 L 24.09375 0 L 17.09375 0 L 17.09375 -0.3125 Z M 17.5 -0.3125 "/></g></g></g><g fill="#ffffff" fill-opacity="1"><g transform="translate(269.959126, 284.206534)"><g><path d="M 6.96875 -18.375 C 8.613281 -19.21875 10.421875 -19.640625 12.390625 -19.640625 C 14.367188 -19.640625 16.175781 -19.21875 17.8125 -18.375 C 19.457031 -17.539062 20.765625 -16.351562 21.734375 -14.8125 C 22.710938 -13.28125 23.203125 -11.539062 23.203125 -9.59375 C 23.203125 -7.65625 22.710938 -5.914062 21.734375 -4.375 C 20.765625 -2.84375 19.457031 -1.65625 17.8125 -0.8125 C 16.175781 0.03125 14.492188 0.453125 12.765625 0.453125 C 11.035156 0.453125 9.507812 0.207031 8.1875 -0.28125 C 6.863281 -0.78125 5.71875 -1.460938 4.75 -2.328125 C 3.78125 -3.203125 3.007812 -4.269531 2.4375 -5.53125 C 1.875 -6.789062 1.59375 -8.269531 1.59375 -9.96875 C 1.59375 -11.664062 2.078125 -13.28125 3.046875 -14.8125 C 4.023438 -16.351562 5.332031 -17.539062 6.96875 -18.375 Z M 6.375 -3.046875 C 7.988281 -1.359375 9.988281 -0.515625 12.375 -0.515625 C 14.769531 -0.515625 16.773438 -1.359375 18.390625 -3.046875 C 20.015625 -4.742188 20.828125 -6.925781 20.828125 -9.59375 C 20.828125 -12.257812 20.015625 -14.441406 18.390625 -16.140625 C 16.773438 -17.835938 14.769531 -18.6875 12.375 -18.6875 C 9.988281 -18.6875 7.988281 -17.835938 6.375 -16.140625 C 4.769531 -14.441406 3.96875 -12.257812 3.96875 -9.59375 C 3.96875 -6.925781 4.769531 -4.742188 6.375 -3.046875 Z M 6.375 -3.046875 "/></g></g></g><g fill="#ffffff" fill-opacity="1"><g transform="translate(297.761034, 284.206534)"><g><path d="M 7.328125 -9.09375 C 7.816406 -8.957031 8.265625 -8.890625 8.671875 -8.890625 C 9.078125 -8.890625 9.40625 -8.898438 9.65625 -8.921875 C 9.914062 -8.941406 10.28125 -9.007812 10.75 -9.125 C 11.21875 -9.25 11.644531 -9.441406 12.03125 -9.703125 C 12.925781 -10.253906 13.585938 -11.125 14.015625 -12.3125 C 14.160156 -12.738281 14.234375 -13.316406 14.234375 -14.046875 C 14.234375 -15.347656 13.785156 -16.367188 12.890625 -17.109375 C 11.992188 -17.859375 10.757812 -18.234375 9.1875 -18.234375 L 6.078125 -18.234375 L 6.078125 -2.046875 C 6.097656 -1.367188 6.410156 -0.867188 7.015625 -0.546875 C 7.285156 -0.390625 7.59375 -0.3125 7.9375 -0.3125 L 8.390625 -0.3125 L 8.390625 0 L 1.765625 0 L 1.765625 -0.3125 L 2.203125 -0.3125 C 2.710938 -0.3125 3.144531 -0.476562 3.5 -0.8125 C 3.851562 -1.144531 4.039062 -1.546875 4.0625 -2.015625 L 4.0625 -17.1875 C 4.039062 -17.675781 3.851562 -18.078125 3.5 -18.390625 C 3.144531 -18.710938 2.710938 -18.875 2.203125 -18.875 L 1.765625 -18.875 L 1.765625 -19.203125 L 9.25 -19.203125 C 11.488281 -19.203125 13.265625 -18.707031 14.578125 -17.71875 C 15.890625 -16.738281 16.546875 -15.421875 16.546875 -13.765625 C 16.546875 -12.566406 16.269531 -11.519531 15.71875 -10.625 C 14.625 -8.875 12.9375 -8 10.65625 -8 C 9.519531 -8 8.410156 -8.253906 7.328125 -8.765625 Z M 7.328125 -9.09375 "/></g></g></g><g fill="#ffffff" fill-opacity="1"><g transform="translate(318.492669, 284.206534)"><g><path d="M 2.203125 -0.3125 C 2.710938 -0.3125 3.144531 -0.476562 3.5 -0.8125 C 3.851562 -1.144531 4.039062 -1.546875 4.0625 -2.015625 L 4.0625 -17.21875 C 4.0625 -17.6875 3.878906 -18.078125 3.515625 -18.390625 C 3.148438 -18.710938 2.710938 -18.875 2.203125 -18.875 L 1.765625 -18.875 L 1.765625 -19.203125 L 11.109375 -19.203125 C 11.984375 -19.203125 12.75 -19.265625 13.40625 -19.390625 C 14.070312 -19.515625 14.5 -19.625 14.6875 -19.71875 L 14.6875 -16.0625 L 14.34375 -16.09375 L 14.34375 -16.578125 C 14.34375 -17.023438 14.191406 -17.40625 13.890625 -17.71875 C 13.585938 -18.039062 13.203125 -18.203125 12.734375 -18.203125 L 6.078125 -18.203125 L 6.078125 -10.078125 L 11.546875 -10.078125 C 11.972656 -10.078125 12.296875 -10.203125 12.515625 -10.453125 C 12.742188 -10.710938 12.859375 -11.035156 12.859375 -11.421875 L 12.859375 -11.84375 L 13.21875 -11.84375 L 13.21875 -7.359375 L 12.859375 -7.359375 L 12.859375 -7.78125 C 12.859375 -8.375 12.632812 -8.773438 12.1875 -8.984375 C 12.019531 -9.054688 11.835938 -9.101562 11.640625 -9.125 L 6.078125 -9.125 L 6.078125 -0.984375 L 11.109375 -0.984375 C 12.085938 -0.984375 12.910156 -1.15625 13.578125 -1.5 C 14.253906 -1.84375 14.765625 -2.25 15.109375 -2.71875 C 15.460938 -3.1875 15.820312 -3.804688 16.1875 -4.578125 L 16.515625 -4.578125 L 14.75 0 L 1.765625 0 L 1.765625 -0.3125 Z M 2.203125 -0.3125 "/></g></g></g></svg>